<?xml version="1.0" encoding="UTF-8"?>
<svg version="1.1" xmlns="http://www.w3.org/2000/svg" width="500" height="243">
<path d="M0 0 C2.08196732 0.0160845 4.1619871 0.00003692 6.24389648 -0.01904297 C39.57389721 -0.07165872 69.44541136 14.81608579 93.21069336 37.57861328 C107.03378931 51.77477575 117.99860728 70.06410249 122.64819336 89.39111328 C121.60920898 89.48908203 120.57022461 89.58705078 119.49975586 89.68798828 C105.82427918 91.10314565 94.43139689 94.11643514 85.25756836 105.13720703 C78.95082084 113.96971508 77.54602563 124.99971095 79.27319336 135.57861328 C81.67329306 145.35385377 85.99614273 152.28289387 94.55834961 157.57080078 C102.40566663 161.84548242 110.86540651 162.69435775 119.64819336 163.39111328 C108.36054422 194.95197435 84.77495754 219.12386338 54.64819336 233.39111328 C27.87152348 244.77134851 -5.28167578 248.28529026 -33.35180664 239.39111328 C-34.03936035 239.17680664 -34.72691406 238.9625 -35.43530273 238.74169922 C-54.59216104 232.57596408 -70.76455014 222.19690961 -85.35180664 208.39111328 C-86.51196289 207.31023437 -86.51196289 207.31023437 -87.69555664 206.20751953 C-100.42645727 193.97800711 -109.98661326 178.18650125 -115.35180664 161.39111328 C-108.09180664 161.39111328 -100.83180664 161.39111328 -93.35180664 161.39111328 C-93.35180664 138.29111328 -93.35180664 115.19111328 -93.35180664 91.39111328 C-100.61180664 91.39111328 -107.87180664 91.39111328 -115.35180664 91.39111328 C-115.02180664 113.50111328 -114.69180664 135.61111328 -114.35180664 158.39111328 C-115.34180664 158.06111328 -116.33180664 157.73111328 -117.35180664 157.39111328 C-124.25899443 131.4583234 -123.75532193 103.59444361 -114.35180664 78.39111328 C-113.26899414 78.62894531 -113.26899414 78.62894531 -112.16430664 78.87158203 C-106.53242529 79.91191567 -101.28887056 80.57707078 -96.28930664 77.51611328 C-93.21067337 74.13954776 -93.23624455 71.99828342 -93.21899414 67.46142578 C-93.36322468 65.21312625 -93.47538624 63.4786674 -94.35180664 61.39111328 C-96.43214958 60.25359198 -96.43214958 60.25359198 -98.91430664 59.64111328 C-99.7405957 59.39876953 -100.56688477 59.15642578 -101.41821289 58.90673828 C-102.05629883 58.73658203 -102.69438477 58.56642578 -103.35180664 58.39111328 C-92.35799959 34.93538209 -66.4671014 16.57055752 -42.79711914 7.60205078 C-41.27733899 7.06298072 -39.75394292 6.53397717 -38.22680664 6.01611328 C-37.56003906 5.78956055 -36.89327148 5.56300781 -36.20629883 5.32958984 C-24.23001706 1.53529381 -12.49473497 -0.11416063 0 0 Z M-66.35180664 102.39111328 C-72.65587368 109.9408032 -75.00804907 120.10224694 -74.63305664 129.82080078 C-73.65948289 138.71818314 -71.58653172 145.83288831 -65.35180664 152.39111328 C-64.56290039 153.22255859 -64.56290039 153.22255859 -63.75805664 154.07080078 C-54.76918386 162.59326978 -43.32585208 163.68024061 -31.46508789 163.62158203 C-23.99409031 163.34090564 -16.42855143 161.75002821 -9.35180664 159.39111328 C-9.6333258 157.26474516 -9.92733927 155.140028 -10.22680664 153.01611328 C-10.38922852 151.83275391 -10.55165039 150.64939453 -10.71899414 149.43017578 C-11.08206514 146.29544669 -11.08206514 146.29544669 -13.35180664 144.39111328 C-15.26746316 144.85112291 -17.18144723 145.32150436 -19.07836914 145.85351562 C-22.82771511 146.74011999 -26.51555683 146.71997953 -30.35180664 146.70361328 C-31.48489258 146.7277832 -31.48489258 146.7277832 -32.64086914 146.75244141 C-38.44981729 146.75743191 -44.38020219 146.01205451 -48.91796875 142.00976562 C-51.33029898 139.27232697 -52.62724487 136.92239852 -53.35180664 133.39111328 C-52.76520767 133.39333389 -52.1786087 133.3955545 -51.57423401 133.39784241 C-45.4915528 133.41989538 -39.40888287 133.43501993 -33.32617188 133.44604492 C-31.05338073 133.45108653 -28.78059284 133.45791965 -26.5078125 133.46655273 C-23.24877113 133.47862589 -19.98977247 133.48434315 -16.73071289 133.48876953 C-15.70780655 133.49393082 -14.68490021 133.4990921 -13.6309967 133.50440979 C-12.69009689 133.50448532 -11.74919708 133.50456085 -10.77978516 133.50463867 C-9.94705582 133.50685928 -9.11432648 133.5090799 -8.25636292 133.5113678 C-6.3414739 133.6011616 -6.3414739 133.6011616 -5.35180664 132.39111328 C-4.45316798 120.28158901 -5.36699326 109.20102686 -13.35180664 99.39111328 C-20.16026281 92.48053027 -27.61406963 89.3606514 -37.35180664 89.07861328 C-49.45963649 89.2741637 -58.32820653 93.37768587 -66.35180664 102.39111328 Z M-0.35180664 91.39111328 C3.70242364 97.57147654 7.91639889 103.60837975 12.27319336 109.57861328 C13.91947485 111.83750874 15.56293177 114.09789424 17.19213867 116.36914062 C18.10394583 117.63533561 19.02851265 118.89254532 19.97143555 120.13574219 C22.65048382 123.80017431 22.65048382 123.80017431 22.64038086 126.40673828 C21.25273124 129.18203751 19.57580142 131.61361301 17.77319336 134.14111328 C16.96160205 135.29057521 16.15042395 136.44032897 15.33959961 137.59033203 C14.90663574 138.20054199 14.47367188 138.81075195 14.02758789 139.43945312 C11.56302912 142.92647664 9.13640724 146.43951035 6.71069336 149.95361328 C6.23841309 150.63198242 5.76613281 151.31035156 5.27954102 152.00927734 C4.61317627 152.97365723 4.61317627 152.97365723 3.93334961 153.95751953 C3.54026611 154.52414307 3.14718262 155.0907666 2.7421875 155.67456055 C1.57768876 157.50173989 0.6171765 159.453147 -0.35180664 161.39111328 C7.56819336 161.39111328 15.48819336 161.39111328 23.64819336 161.39111328 C25.46319336 157.96736328 27.27819336 154.54361328 29.14819336 151.01611328 C29.7224707 149.93797363 30.29674805 148.85983398 30.88842773 147.74902344 C31.33508789 146.90130371 31.78174805 146.05358398 32.24194336 145.18017578 C32.7027832 144.31086426 33.16362305 143.44155273 33.63842773 142.54589844 C34.78963802 140.48588607 34.78963802 140.48588607 34.64819336 138.39111328 C35.63819336 138.39111328 36.62819336 138.39111328 37.64819336 138.39111328 C37.8840918 139.20966797 38.11999023 140.02822266 38.36303711 140.87158203 C39.90641306 145.09827423 41.9702695 148.81384106 44.21069336 152.70361328 C44.62254883 153.43128906 45.0344043 154.15896484 45.45874023 154.90869141 C47.27225428 158.35273157 47.27225428 158.35273157 49.64819336 161.39111328 C51.42890582 161.47837551 53.21302476 161.49810369 54.99584961 161.48876953 C56.07543945 161.48554688 57.1550293 161.48232422 58.26733398 161.47900391 C59.40364258 161.470625 60.53995117 161.46224609 61.71069336 161.45361328 C62.85086914 161.44910156 63.99104492 161.44458984 65.16577148 161.43994141 C67.99329687 161.42811076 70.82071976 161.41162738 73.64819336 161.39111328 C72.24170309 157.49523237 70.40603817 154.29438801 68.09350586 150.86376953 C67.39612305 149.82414062 66.69874023 148.78451172 65.98022461 147.71337891 C65.2519043 146.63765625 64.52358398 145.56193359 63.77319336 144.45361328 C63.05260742 143.38175781 62.33202148 142.30990234 61.58959961 141.20556641 C60.24161649 139.20096904 58.89173509 137.19764587 57.53930664 135.19604492 C56.91523926 134.27041748 56.29117188 133.34479004 55.64819336 132.39111328 C54.88877441 131.38749756 54.12935547 130.38388184 53.34692383 129.34985352 C51.64819336 126.39111328 51.64819336 126.39111328 51.71606445 123.78222656 C52.72109032 121.20411674 53.87891875 119.32805703 55.56225586 117.13330078 C56.15570801 116.34737549 56.74916016 115.5614502 57.3605957 114.75170898 C57.99175293 113.9314624 58.62291016 113.11121582 59.27319336 112.26611328 C64.40066801 105.47133115 69.23190595 98.67184876 73.64819336 91.39111328 C69.9412163 91.12850955 66.23662978 90.9695449 62.52319336 90.82861328 C60.95311523 90.71549805 60.95311523 90.71549805 59.35131836 90.60009766 C53.50140505 90.33901508 53.50140505 90.33901508 48.68579102 93.22583008 C47.12150349 95.54840513 45.85924696 97.86847662 44.64819336 100.39111328 C44.02170898 101.45201172 43.39522461 102.51291016 42.74975586 103.60595703 C42.26249023 104.50443359 41.77522461 105.40291016 41.27319336 106.32861328 C40.77045898 107.24513672 40.26772461 108.16166016 39.74975586 109.10595703 C38.50344928 111.26857945 38.50344928 111.26857945 38.64819336 113.39111328 C37.98819336 113.39111328 37.32819336 113.39111328 36.64819336 113.39111328 C36.39166992 112.74787109 36.13514648 112.10462891 35.87084961 111.44189453 C35.46737305 110.43513672 35.06389648 109.42837891 34.64819336 108.39111328 C34.41729004 107.72901855 34.18638672 107.06692383 33.94848633 106.38476562 C31.88410216 100.73559779 29.58829131 95.06820152 24.64819336 91.39111328 C16.56814668 89.22273535 7.84976966 90.35537136 -0.35180664 91.39111328 Z " fill="#F4831F" transform="translate(121.351806640625,-0.39111328125)"/>
<path d="M0 0 C7.92 0 15.84 0 24 0 C24 34.98 24 69.96 24 106 C17.07 106 10.14 106 3 106 C1.5216774 103.04335481 1.93967217 100.25770263 2 97 C1.50371094 97.47050781 1.00742187 97.94101563 0.49609375 98.42578125 C-6.56848635 104.90052923 -13.29313721 108.21255904 -23 108 C-32.41445296 106.63231501 -40.34825962 102.62097339 -46.375 95.1875 C-53.38230713 85.05505036 -54.3607863 71.87970722 -52.5390625 59.9921875 C-49.88939906 49.05063611 -44.57083779 40.99638877 -35 35 C-26.91164517 30.62486196 -18.60555872 29.81328242 -9.8125 32.3125 C-5.97438883 33.48439501 -3.59909579 34.84054253 0 37 C0 24.79 0 12.58 0 0 Z M-25.1875 55.1875 C-28.69482931 60.62990755 -29.56309684 66.580696 -29 73 C-27.67977975 78.97193378 -25.90435637 83.07651491 -21 87 C-15.59884639 88.80038454 -10.7828918 88.85842938 -5.625 86.375 C-1.50329694 82.64584009 0.12624402 78.9725869 0.43359375 73.46875 C0.4507083 71.81258792 0.45166648 70.15618993 0.4375 68.5 C0.45748047 67.67113281 0.47746094 66.84226562 0.49804688 65.98828125 C0.49368883 60.50586319 -0.31051149 57.30548395 -4 53 C-6.93510788 50.20072206 -8.90633704 49.58773193 -12.9375 49.625 C-18.52082225 49.81357036 -21.24560738 51.24560738 -25.1875 55.1875 Z " fill="#64728C" transform="translate(476,57)"/>
<path d="M0 0 C10.52342733 8.67686367 13.10219253 20.03028023 14.65234375 33.10546875 C14.5703125 35.45703125 14.5703125 35.45703125 12.5703125 41.45703125 C-2.9396875 41.12703125 -18.4496875 40.79703125 -34.4296875 40.45703125 C-32.30443269 46.77351868 -32.30443269 46.77351868 -27.9296875 49.89453125 C-17.71486575 53.80909287 -4.75505841 52.13706331 5.5703125 49.45703125 C7.13111028 53.04424296 8.04522098 56.41541725 8.6953125 60.26953125 C8.86289062 61.24535156 9.03046875 62.22117187 9.203125 63.2265625 C9.32429688 63.96261719 9.44546875 64.69867188 9.5703125 65.45703125 C-3.84804556 72.81748652 -19.90547204 72.73484033 -34.3671875 68.76953125 C-43.89424805 65.50044185 -49.71058889 60.34958269 -54.4296875 51.45703125 C-59.27155713 40.50608392 -59.46299756 29.03102459 -55.4609375 17.71875 C-50.76875865 7.52594257 -43.93650427 0.46443893 -33.4296875 -3.54296875 C-22.43799711 -7.49831188 -9.92863722 -6.30516351 0 0 Z M-30.4296875 13.45703125 C-33.4946545 17.15070942 -34.4296875 18.60662033 -34.4296875 23.45703125 C-25.8496875 23.45703125 -17.2696875 23.45703125 -8.4296875 23.45703125 C-10.54797463 15.25172936 -10.54797463 15.25172936 -13.1171875 12.45703125 C-19.52888112 9.68440698 -24.42817695 9.87920765 -30.4296875 13.45703125 Z " fill="#64728B" transform="translate(322.4296875,93.54296875)"/>
<path d="M0 0 C7.60320262 5.497089 11.40793154 11.42005194 14.3125 20.3125 C14.50972656 20.91449219 14.70695312 21.51648438 14.91015625 22.13671875 C15.51237594 25.3933825 15.45646004 28.63845304 15.4375 31.9375 C15.44136719 32.618125 15.44523437 33.29875 15.44921875 34 C15.43922061 39.05905878 15.43922061 39.05905878 14.3125 41.3125 C-1.1975 41.3125 -16.7075 41.3125 -32.6875 41.3125 C-29.71136602 47.92158422 -29.71136602 47.92158422 -24.16015625 51.375 C-19.83192826 52.5434755 -15.89779361 52.61183856 -11.4375 52.5625 C-10.59791748 52.55863281 -9.75833496 52.55476563 -8.89331055 52.55078125 C-2.93837716 52.46777763 2.53395947 51.82818276 8.3125 50.3125 C8.81627768 52.58249825 9.31540019 54.85353003 9.8125 57.125 C10.0909375 58.38957031 10.369375 59.65414062 10.65625 60.95703125 C11.3125 64.3125 11.3125 64.3125 11.3125 67.3125 C8.33676268 68.16011592 5.35787716 68.99070957 2.375 69.8125 C1.12879883 70.17021484 1.12879883 70.17021484 -0.14257812 70.53515625 C-14.06211807 74.32647063 -29.03612556 72.23228779 -41.6484375 65.22265625 C-50.06511024 59.76468288 -54.0314012 52.07472559 -56.1171875 42.38671875 C-58.21939759 29.96211809 -54.2288274 18.42979581 -47.2421875 8.1953125 C-36.5199469 -5.45650204 -14.70561015 -9.2371923 0 0 Z M-28.6875 14.3125 C-31.752467 18.00617817 -32.6875 19.46208908 -32.6875 24.3125 C-24.1075 24.3125 -15.5275 24.3125 -6.6875 24.3125 C-8.80578713 16.10719811 -8.80578713 16.10719811 -11.375 13.3125 C-17.78669362 10.53987573 -22.68598945 10.7346764 -28.6875 14.3125 Z " fill="#64728C" transform="translate(399.6875,92.6875)"/>
<path d="M0 0 C2.75020864 2.75020864 2.25802003 4.34155588 2.265625 8.1875 C2.26949219 10.07275391 2.26949219 10.07275391 2.2734375 11.99609375 C2.26715332 12.98391846 2.26715332 12.98391846 2.26074219 13.99169922 C2.25018991 15.96449455 2.2616126 17.93736814 2.2734375 19.91015625 C2.25864684 27.1797652 1.82087262 33.94878483 0 41 C-6.95202 41.41908182 -12.1931013 41.1535456 -18 37 C-23.8852422 30.80500821 -24.45156477 25.8005275 -24.3125 17.421875 C-23.77195683 11.50292734 -21.48240802 8.1779684 -17.125 4.1875 C-11.46574692 0.22602284 -6.73703983 -0.44913599 0 0 Z " fill="#F38320" transform="translate(246,105)"/>
<path d="M0 0 C4.92202564 2.3698642 7.12106917 4.88513273 9 10 C9 11.65 9 13.3 9 15 C-0.24 15 -9.48 15 -19 15 C-17.93447307 7.54131151 -17.80731527 6.80731527 -13 2 C-8.77022167 -0.55530938 -4.82306297 -0.66986986 0 0 Z " fill="#F18321" transform="translate(87,103)"/>
<path d="M0 0 C1.65 0 3.3 0 5 0 C4.97679687 1.01578125 4.95359375 2.0315625 4.9296875 3.078125 C4.79664151 11.6096988 5.22021722 19.60959546 7 28 C6.34 27.67 5.68 27.34 5 27 C5 25.68 5 24.36 5 23 C4.195625 22.87625 3.39125 22.7525 2.5625 22.625 C1.2940625 22.315625 1.2940625 22.315625 0 22 C-1.59412284 18.81175432 -1.10174735 15.37103338 -1.0625 11.875 C-1.05798828 11.12089844 -1.05347656 10.36679688 -1.04882812 9.58984375 C-1.03703499 7.72652873 -1.01909942 5.86325445 -1 4 C-0.34 3.67 0.32 3.34 1 3 C0.67 2.01 0.34 1.02 0 0 Z " fill="#E8862E" transform="translate(43,116)"/>
<path d="M0 0 C2.75020864 2.75020864 2.25802003 4.34155588 2.265625 8.1875 C2.26820313 9.44433594 2.27078125 10.70117188 2.2734375 11.99609375 C2.26924805 12.65464355 2.26505859 13.31319336 2.26074219 13.99169922 C2.25018991 15.96449455 2.2616126 17.93736814 2.2734375 19.91015625 C2.25854045 27.232057 1.7250052 33.88093092 0 41 C-3.3 41 -6.6 41 -10 41 C-10 40.67 -10 40.34 -10 40 C-7.03 40 -4.06 40 -1 40 C-0.97521065 35.39184965 -0.9570977 30.78373847 -0.94506836 26.17553711 C-0.94005144 24.60912398 -0.93323638 23.0427155 -0.92456055 21.47631836 C-0.91237906 19.21987761 -0.90674519 16.96349898 -0.90234375 14.70703125 C-0.89718246 14.01100296 -0.89202118 13.31497467 -0.88670349 12.59785461 C-0.88628454 8.93529848 -1.12851905 5.56131142 -2 2 C-5.3 2 -8.6 2 -12 2 C-7.24698333 -0.37650833 -5.19966951 -0.33546255 0 0 Z " fill="#D18232" transform="translate(246,105)"/>
<path d="M0 0 C0.33 0.99 0.66 1.98 1 3 C1.66 3.33 2.32 3.66 3 4 C3 26.11 3 48.22 3 71 C2.01 70.67 1.02 70.34 0 70 C-0.495 67.525 -0.495 67.525 -1 65 C-0.34 65 0.32 65 1 65 C0.67 46.52 0.34 28.04 0 9 C-0.66 9.66 -1.32 10.32 -2 11 C-1.125 3.375 -1.125 3.375 0 0 Z " fill="#D88B37" transform="translate(4,87)"/>
<path d="M0 0 C3.375 -0.125 3.375 -0.125 7 0 C9 2 9 2 9 6 C11.97 6 14.94 6 18 6 C18 6.66 18 7.32 18 8 C10.69303751 7.54034292 4.00242552 6.11670277 -3 4 C-2.01 3.67 -1.02 3.34 0 3 C0 2.01 0 1.02 0 0 Z " fill="#E2872F" transform="translate(88,234)"/>
<path d="M0 0 C5.28 0 10.56 0 16 0 C15.67 1.32 15.34 2.64 15 4 C10.05 4 5.1 4 0 4 C0 2.68 0 1.36 0 0 Z " fill="#E48138" transform="translate(176,161)"/>
<path d="M0 0 C0.33 0 0.66 0 1 0 C1 7.26 1 14.52 1 22 C-0.32 21.34 -1.64 20.68 -3 20 C-3 15.05 -3 10.1 -3 5 C-2.01 4.67 -1.02 4.34 0 4 C0 2.68 0 1.36 0 0 Z " fill="#CB883B" transform="translate(47,116)"/>
<path d="M0 0 C0.33 0 0.66 0 1 0 C0.97679687 0.79921875 0.95359375 1.5984375 0.9296875 2.421875 C0.80223338 10.17836874 1.46605703 17.39876473 3 25 C2.34 25 1.68 25 1 25 C1 23.68 1 22.36 1 21 C0.34 21 -0.32 21 -1 21 C-2.43988773 14.16053329 -3.39607503 6.36764068 0 0 Z " fill="#D98331" transform="translate(199,117)"/>
<path d="M0 0 C0.66 0.33 1.32 0.66 2 1 C2.33 3.64 2.66 6.28 3 9 C-6.24 9 -15.48 9 -25 9 C-24.67 7.68 -24.34 6.36 -24 5 C-24 5.99 -24 6.98 -24 8 C-16.08 8 -8.16 8 0 8 C0 5.36 0 2.72 0 0 Z " fill="#D58C3E" transform="translate(93,109)"/>
<path d="M0 0 C7.26 0 14.52 0 22 0 C21.67 0.99 21.34 1.98 21 3 C18.24915453 2.88588196 15.49988053 2.75914051 12.75 2.625 C11.97269531 2.5940625 11.19539063 2.563125 10.39453125 2.53125 C9.64042969 2.49257812 8.88632813 2.45390625 8.109375 2.4140625 C7.41811523 2.3826416 6.72685547 2.3512207 6.01464844 2.31884766 C4 2 4 2 0 0 Z " fill="#CC8031" transform="translate(6,161)"/>
<path d="M0 0 C0.99 0.66 1.98 1.32 3 2 C2.67 2.66 2.34 3.32 2 4 C1.01 4 0.02 4 -1 4 C-1 9.94 -1 15.88 -1 22 C-3.83453939 19.16546061 -3.29999688 17.20098712 -3.3125 13.25 C-3.32925781 12.03828125 -3.34601563 10.8265625 -3.36328125 9.578125 C-2.97404161 5.74432384 -1.92298868 3.3081494 0 0 Z " fill="#E48633" transform="translate(225,113)"/>
<path d="M0 0 C2.97 0.33 5.94 0.66 9 1 C5.25 7.75 5.25 7.75 3 10 C0 3.375 0 3.375 0 0 Z " fill="#E3862B" transform="translate(7,162)"/>
<path d="M0 0 C-0.33 1.32 -0.66 2.64 -1 4 C-1.99 3.67 -2.98 3.34 -4 3 C-4.99 3.33 -5.98 3.66 -7 4 C-8.77313851 4.08209792 -10.54920775 4.10746294 -12.32421875 4.09765625 C-13.35224609 4.09443359 -14.38027344 4.09121094 -15.43945312 4.08789062 C-16.51130859 4.07951172 -17.58316406 4.07113281 -18.6875 4.0625 C-19.77095703 4.05798828 -20.85441406 4.05347656 -21.97070312 4.04882812 C-24.64719085 4.03703743 -27.32356777 4.02058063 -30 4 C-29.67 3.34 -29.34 2.68 -29 2 C-27.72125 2.02320313 -26.4425 2.04640625 -25.125 2.0703125 C-23.41667255 2.08908533 -21.70833873 2.10728389 -20 2.125 C-19.16082031 2.14175781 -18.32164062 2.15851563 -17.45703125 2.17578125 C-11.43069267 2.22249705 -5.80735687 0 0 0 Z " fill="#68767F" transform="translate(408,143)"/>
<path d="M0 0 C4.62 0 9.24 0 14 0 C14 0.66 14 1.32 14 2 C10.00326615 3.33224462 6.16705497 3.13442113 2 3 C1.34 2.67 0.68 2.34 0 2 C0 1.34 0 0.68 0 0 Z " fill="#D08136" transform="translate(128,161)"/>
<path d="M0 0 C0.99 0 1.98 0 3 0 C3.33 0.66 3.66 1.32 4 2 C4.99 2.66 5.98 3.32 7 4 C3.12315913 5.19287411 0.08378077 6 -4 6 C-4 5.34 -4 4.68 -4 4 C-3.01 4 -2.02 4 -1 4 C-0.67 2.68 -0.34 1.36 0 0 Z " fill="#D7862E" transform="translate(156,234)"/>
<path d="M0 0 C0.33 0 0.66 0 1 0 C1.85373239 7.02804699 2.12109311 13.92278069 2 21 C-0.87400139 15.82679749 -1.13962772 11.52290253 -0.5625 5.6875 C-0.46066406 4.61886719 -0.35882813 3.55023438 -0.25390625 2.44921875 C-0.17011719 1.64097656 -0.08632813 0.83273438 0 0 Z " fill="#697881" transform="translate(344,119)"/>
<path d="M0 0 C0.33 1.32 0.66 2.64 1 4 C-0.258125 3.87625 -1.51625 3.7525 -2.8125 3.625 C-3.87404297 3.52058594 -3.87404297 3.52058594 -4.95703125 3.4140625 C-7 3 -7 3 -10 1 C-6.59437148 0.22157062 -3.49234244 -0.09978121 0 0 Z " fill="#CA8638" transform="translate(95,236)"/>
<path d="M0 0 C1.98 0 3.96 0 6 0 C5.01 2.64 4.02 5.28 3 8 C2.67 8 2.34 8 2 8 C2 6.35 2 4.7 2 3 C1.34 3 0.68 3 0 3 C0 2.01 0 1.02 0 0 Z " fill="#E2862F" transform="translate(235,163)"/>
<path d="M0 0 C0 0.66 0 1.32 0 2 C-1.03125 1.95875 -2.0625 1.9175 -3.125 1.875 C-6.86829627 1.99575149 -9.53734547 2.64872018 -13 4 C-13 3.01 -13 2.02 -13 1 C-8.31506124 -1.48887372 -5.0555786 -0.85687773 0 0 Z " fill="#78797C" transform="translate(385,103)"/>
<path d="M0 0 C-1 2 -1 2 -3.1875 3.125 C-6.26769331 4.08328236 -8.79309948 4.14915816 -12 4 C-9.94577945 1.94577945 -8.66990976 1.31862408 -6 0.3125 C-5.29875 0.04050781 -4.5975 -0.23148437 -3.875 -0.51171875 C-2 -1 -2 -1 0 0 Z " fill="#E08530" transform="translate(84,7)"/>
<path d="M0 0 C0.33 0.66 0.66 1.32 1 2 C0 5 0 5 -2 6 C-3.99960012 6.039992 -6.00047242 6.04346799 -8 6 C-5.38485683 3.87961365 -2.80362384 1.86908256 0 0 Z " fill="#EB8338" transform="translate(62,15)"/>
<path d="M0 0 C-0.33 3.3 -0.66 6.6 -1 10 C-1.66 9.67 -2.32 9.34 -3 9 C-3.8125 6.125 -3.8125 6.125 -4 3 C-1.8 0 -1.8 0 0 0 Z " fill="#61787B" transform="translate(448,118)"/>
<path d="M0 0 C0.33 0 0.66 0 1 0 C1 1.98 1 3.96 1 6 C-0.98 6.66 -2.96 7.32 -5 8 C-1.125 1.125 -1.125 1.125 0 0 Z " fill="#EE8330" transform="translate(192,95)"/>
<path d="M0 0 C1.875 0.1875 1.875 0.1875 4 1 C5.3125 3.375 5.3125 3.375 6 6 C5.67 6.99 5.34 7.98 5 9 C4.16396622 7.68921847 3.3312426 6.37632511 2.5 5.0625 C2.0359375 4.33160156 1.571875 3.60070312 1.09375 2.84765625 C0 1 0 1 0 0 Z " fill="#E58635" transform="translate(175,129)"/>
<path d="M0 0 C0.99 0.495 0.99 0.495 2 1 C2.59355614 3.64860427 2.74209269 6.29197322 3 9 C2.01 8.67 1.02 8.34 0 8 C0 5.36 0 2.72 0 0 Z " fill="#C18034" transform="translate(93,109)"/>
<path d="M0 0 C0.99 0.99 1.98 1.98 3 3 C3.66 2.67 4.32 2.34 5 2 C4.34 3.65 3.68 5.3 3 7 C2.34 7 1.68 7 1 7 C0.01 5.02 -0.98 3.04 -2 1 C-1.34 0.67 -0.68 0.34 0 0 Z " fill="#DE8624" transform="translate(157,106)"/>
<path d="M0 0 C-0.33 0.99 -0.66 1.98 -1 3 C-3.97 2.67 -6.94 2.34 -10 2 C-10 1.67 -10 1.34 -10 1 C-6.56484998 0.37542727 -3.50935186 0 0 0 Z " fill="#D8873C" transform="translate(28,161)"/>
<path d="M0 0 C0.33 0.99 0.66 1.98 1 3 C1.66 3.33 2.32 3.66 3 4 C2.01 4.33 1.02 4.66 0 5 C-0.33 6.98 -0.66 8.96 -1 11 C-2.60080151 6.99799622 -1.29279692 3.95443764 0 0 Z " fill="#E2862F" transform="translate(4,87)"/>
</svg>
