<?xml version="1.0" encoding="UTF-8"?>
<svg id="Layer_2" data-name="Layer 2" xmlns="http://www.w3.org/2000/svg" viewBox="0 0 128.83 17.63">
  <defs>
    <style>
      .cls-1 {
        fill: #fff;
        stroke: #fff;
        stroke-miterlimit: 10;
        stroke-width: .2px;
      }
    </style>
  </defs>
  <g id="Layer_1-2" data-name="Layer 1">
    <g>
      <path class="cls-1" d="M12.73.2c1.3,0,2.41.46,3.33,1.38.92.92,1.38,2.03,1.38,3.32s-.46,2.41-1.38,3.33c-.92.92-2.03,1.38-3.33,1.38H1.55v7.93H.1v-9.4h12.63c.9,0,1.66-.31,2.3-.94.64-.63.95-1.39.95-2.29s-.32-1.66-.95-2.3c-.64-.64-1.4-.95-2.3-.95H.1V.2h12.63Z"/>
      <path class="cls-1" d="M39.09,4.9c0,.82-.2,1.59-.6,2.29-.4.7-.93,1.26-1.59,1.68.66.42,1.19.98,1.59,1.68.4.7.6,1.46.6,2.29v4.7h-1.45v-4.7c0-.9-.32-1.66-.95-2.29s-1.4-.94-2.3-.94h-11.18v7.93h-1.45V.2h12.63c1.3,0,2.41.46,3.33,1.38.92.92,1.38,2.03,1.38,3.32ZM23.21,1.66v6.48h11.18c.9,0,1.66-.31,2.3-.94.64-.63.95-1.39.95-2.29s-.32-1.66-.95-2.3c-.64-.64-1.4-.95-2.3-.95h-11.18Z"/>
      <path class="cls-1" d="M43.42,17.53L53.17.2l9.73,17.33h-1.78l-7.95-14.19-7.97,14.19h-1.78Z"/>
      <path class="cls-1" d="M71.93.2h12.63v1.45h-12.63c-.9,0-1.66.32-2.3.95-.64.64-.95,1.4-.95,2.3s.32,1.66.95,2.29c.64.63,1.4.94,2.3.94h7.93c1.3,0,2.41.46,3.33,1.38.92.92,1.38,2.03,1.38,3.32s-.46,2.41-1.38,3.33c-.92.92-2.03,1.38-3.33,1.38h-12.63v-1.45h12.63c.9,0,1.66-.32,2.3-.95.64-.64.95-1.4.95-2.3s-.32-1.66-.95-2.29-1.4-.94-2.3-.94h-7.93c-1.3,0-2.41-.46-3.33-1.38-.92-.92-1.38-2.03-1.38-3.33s.46-2.41,1.38-3.32c.92-.92,2.03-1.38,3.33-1.38Z"/>
      <path class="cls-1" d="M87.59,17.53L97.34.2l9.73,17.33h-1.78l-7.95-14.19-7.97,14.19h-1.78Z"/>
      <path class="cls-1" d="M120.06.2c2.4,0,4.44.84,6.13,2.53,1.69,1.69,2.53,3.73,2.53,6.13s-.84,4.44-2.53,6.13c-1.69,1.69-3.73,2.53-6.13,2.53h-8.67v-9.4h1.45v7.95h7.21c1.3,0,2.5-.32,3.62-.96s1.99-1.52,2.63-2.63c.64-1.11.96-2.32.96-3.62s-.32-2.51-.96-3.62c-.64-1.11-1.52-1.99-2.63-2.63-1.11-.64-2.32-.96-3.62-.96h-8.67V.2h8.67Z"/>
    </g>
  </g>
</svg>